<?xml version="1.0" encoding="utf-8" standalone="no"?>
<!DOCTYPE svg PUBLIC "-//W3C//DTD SVG 1.1//EN"
  "http://www.w3.org/Graphics/SVG/1.1/DTD/svg11.dtd">
<svg xmlns:xlink="http://www.w3.org/1999/xlink" width="343.62pt" height="146.845481pt" viewBox="0 0 343.62 146.845481" xmlns="http://www.w3.org/2000/svg" version="1.1">
 <metadata>
  <rdf:RDF xmlns:dc="http://purl.org/dc/elements/1.1/" xmlns:cc="http://creativecommons.org/ns#" xmlns:rdf="http://www.w3.org/1999/02/22-rdf-syntax-ns#">
   <cc:Work>
    <dc:type rdf:resource="http://purl.org/dc/dcmitype/StillImage"/>
    <dc:date>2026-09-25T23:26:44.121308</dc:date>
    <dc:format>image/svg+xml</dc:format>
    <dc:creator>
     <cc:Agent>
      <dc:title>Matplotlib v3.10.8, https://matplotlib.org/</dc:title>
     </cc:Agent>
    </dc:creator>
   </cc:Work>
  </rdf:RDF>
 </metadata>
 <defs>
  <style type="text/css">*{stroke-linejoin: round; stroke-linecap: butt}</style>
 </defs>
 <g id="figure_1">
  <g id="patch_1">
   <path d="M 0 146.845481 
L 343.62 146.845481 
L 343.62 0 
L 0 0 
z
" style="fill: #ffffff"/>
  </g>
  <g id="axes_1">
   <g id="table_1">
    <g id="patch_2">
     <path d="M 7.2 62.001881 
L 113.22 62.001881 
L 113.22 43.401881 
L 7.2 43.401881 
z
" style="fill: #efefef; stroke: #111111; stroke-width: 0.8; stroke-linejoin: miter"/>
    </g>
    <g id="text_1">
     <text style="font-weight: 700; font-size: 10px; font-family: 'DejaVu Sans'; text-anchor: middle; fill: #111111" x="60.21" y="55.383131" transform="rotate(-0 60.21 55.383131)">Age group</text>
    </g>
    <g id="patch_3">
     <path d="M 113.22 62.001881 
L 169.02 62.001881 
L 169.02 43.401881 
L 113.22 43.401881 
z
" style="fill: #efefef; stroke: #111111; stroke-width: 0.8; stroke-linejoin: miter"/>
    </g>
    <g id="text_2">
     <text style="font-weight: 700; font-size: 10px; font-family: 'DejaVu Sans'; text-anchor: middle; fill: #111111" x="141.12" y="55.461256" transform="rotate(-0 141.12 55.461256)">Coffee</text>
    </g>
    <g id="patch_4">
     <path d="M 169.02 62.001881 
L 224.82 62.001881 
L 224.82 43.401881 
L 169.02 43.401881 
z
" style="fill: #efefef; stroke: #111111; stroke-width: 0.8; stroke-linejoin: miter"/>
    </g>
    <g id="text_3">
     <text style="font-weight: 700; font-size: 10px; font-family: 'DejaVu Sans'; text-anchor: middle; fill: #111111" x="196.92" y="55.461256" transform="rotate(-0 196.92 55.461256)">Tea</text>
    </g>
    <g id="patch_5">
     <path d="M 224.82 62.001881 
L 280.62 62.001881 
L 280.62 43.401881 
L 224.82 43.401881 
z
" style="fill: #efefef; stroke: #111111; stroke-width: 0.8; stroke-linejoin: miter"/>
    </g>
    <g id="text_4">
     <text style="font-weight: 700; font-size: 10px; font-family: 'DejaVu Sans'; text-anchor: middle; fill: #111111" x="252.72" y="55.461256" transform="rotate(-0 252.72 55.461256)">Neither</text>
    </g>
    <g id="patch_6">
     <path d="M 280.62 62.001881 
L 336.42 62.001881 
L 336.42 43.401881 
L 280.62 43.401881 
z
" style="fill: #efefef; stroke: #111111; stroke-width: 0.8; stroke-linejoin: miter"/>
    </g>
    <g id="text_5">
     <text style="font-weight: 700; font-size: 10px; font-family: 'DejaVu Sans'; text-anchor: middle; fill: #111111" x="308.52" y="55.461256" transform="rotate(-0 308.52 55.461256)">Total</text>
    </g>
    <g id="patch_7">
     <path d="M 7.2 80.601881 
L 113.22 80.601881 
L 113.22 62.001881 
L 7.2 62.001881 
z
" style="fill: #ffffff; stroke: #111111; stroke-width: 0.8; stroke-linejoin: miter"/>
    </g>
    <g id="text_6">
     <text style="font-size: 10px; font-family: 'DejaVu Sans'; text-anchor: middle; fill: #111111" x="60.21" y="74.061256" transform="rotate(-0 60.21 74.061256)">Under 30 years</text>
    </g>
    <g id="patch_8">
     <path d="M 113.22 80.601881 
L 169.02 80.601881 
L 169.02 62.001881 
L 113.22 62.001881 
z
" style="fill: #ffffff; stroke: #111111; stroke-width: 0.8; stroke-linejoin: miter"/>
    </g>
    <g id="text_7">
     <text style="font-size: 10px; font-family: 'DejaVu Sans'; text-anchor: middle; fill: #111111" x="141.12" y="74.061256" transform="rotate(-0 141.12 74.061256)">42</text>
    </g>
    <g id="patch_9">
     <path d="M 169.02 80.601881 
L 224.82 80.601881 
L 224.82 62.001881 
L 169.02 62.001881 
z
" style="fill: #ffffff; stroke: #111111; stroke-width: 0.8; stroke-linejoin: miter"/>
    </g>
    <g id="text_8">
     <text style="font-size: 10px; font-family: 'DejaVu Sans'; text-anchor: middle; fill: #111111" x="196.92" y="74.061256" transform="rotate(-0 196.92 74.061256)">18</text>
    </g>
    <g id="patch_10">
     <path d="M 224.82 80.601881 
L 280.62 80.601881 
L 280.62 62.001881 
L 224.82 62.001881 
z
" style="fill: #ffffff; stroke: #111111; stroke-width: 0.8; stroke-linejoin: miter"/>
    </g>
    <g id="text_9">
     <text style="font-size: 10px; font-family: 'DejaVu Sans'; text-anchor: middle; fill: #111111" x="252.72" y="74.061256" transform="rotate(-0 252.72 74.061256)">20</text>
    </g>
    <g id="patch_11">
     <path d="M 280.62 80.601881 
L 336.42 80.601881 
L 336.42 62.001881 
L 280.62 62.001881 
z
" style="fill: #ffffff; stroke: #111111; stroke-width: 0.8; stroke-linejoin: miter"/>
    </g>
    <g id="text_10">
     <text style="font-size: 10px; font-family: 'DejaVu Sans'; text-anchor: middle; fill: #111111" x="308.52" y="74.061256" transform="rotate(-0 308.52 74.061256)">80</text>
    </g>
    <g id="patch_12">
     <path d="M 7.2 99.201881 
L 113.22 99.201881 
L 113.22 80.601881 
L 7.2 80.601881 
z
" style="fill: #ffffff; stroke: #111111; stroke-width: 0.8; stroke-linejoin: miter"/>
    </g>
    <g id="text_11">
     <text style="font-size: 10px; font-family: 'DejaVu Sans'; text-anchor: middle; fill: #111111" x="60.21" y="92.661256" transform="rotate(-0 60.21 92.661256)">30 years or older</text>
    </g>
    <g id="patch_13">
     <path d="M 113.22 99.201881 
L 169.02 99.201881 
L 169.02 80.601881 
L 113.22 80.601881 
z
" style="fill: #ffffff; stroke: #111111; stroke-width: 0.8; stroke-linejoin: miter"/>
    </g>
    <g id="text_12">
     <text style="font-size: 10px; font-family: 'DejaVu Sans'; text-anchor: middle; fill: #111111" x="141.12" y="92.661256" transform="rotate(-0 141.12 92.661256)">66</text>
    </g>
    <g id="patch_14">
     <path d="M 169.02 99.201881 
L 224.82 99.201881 
L 224.82 80.601881 
L 169.02 80.601881 
z
" style="fill: #ffffff; stroke: #111111; stroke-width: 0.8; stroke-linejoin: miter"/>
    </g>
    <g id="text_13">
     <text style="font-size: 10px; font-family: 'DejaVu Sans'; text-anchor: middle; fill: #111111" x="196.92" y="92.661256" transform="rotate(-0 196.92 92.661256)">34</text>
    </g>
    <g id="patch_15">
     <path d="M 224.82 99.201881 
L 280.62 99.201881 
L 280.62 80.601881 
L 224.82 80.601881 
z
" style="fill: #ffffff; stroke: #111111; stroke-width: 0.8; stroke-linejoin: miter"/>
    </g>
    <g id="text_14">
     <text style="font-size: 10px; font-family: 'DejaVu Sans'; text-anchor: middle; fill: #111111" x="252.72" y="92.661256" transform="rotate(-0 252.72 92.661256)">20</text>
    </g>
    <g id="patch_16">
     <path d="M 280.62 99.201881 
L 336.42 99.201881 
L 336.42 80.601881 
L 280.62 80.601881 
z
" style="fill: #ffffff; stroke: #111111; stroke-width: 0.8; stroke-linejoin: miter"/>
    </g>
    <g id="text_15">
     <text style="font-size: 10px; font-family: 'DejaVu Sans'; text-anchor: middle; fill: #111111" x="308.52" y="92.661256" transform="rotate(-0 308.52 92.661256)">120</text>
    </g>
    <g id="patch_17">
     <path d="M 7.2 117.801881 
L 113.22 117.801881 
L 113.22 99.201881 
L 7.2 99.201881 
z
" style="fill: #ffffff; stroke: #111111; stroke-width: 0.8; stroke-linejoin: miter"/>
    </g>
    <g id="text_16">
     <text style="font-size: 10px; font-family: 'DejaVu Sans'; text-anchor: middle; fill: #111111" x="60.21" y="111.261256" transform="rotate(-0 60.21 111.261256)">Total</text>
    </g>
    <g id="patch_18">
     <path d="M 113.22 117.801881 
L 169.02 117.801881 
L 169.02 99.201881 
L 113.22 99.201881 
z
" style="fill: #ffffff; stroke: #111111; stroke-width: 0.8; stroke-linejoin: miter"/>
    </g>
    <g id="text_17">
     <text style="font-size: 10px; font-family: 'DejaVu Sans'; text-anchor: middle; fill: #111111" x="141.12" y="111.261256" transform="rotate(-0 141.12 111.261256)">108</text>
    </g>
    <g id="patch_19">
     <path d="M 169.02 117.801881 
L 224.82 117.801881 
L 224.82 99.201881 
L 169.02 99.201881 
z
" style="fill: #ffffff; stroke: #111111; stroke-width: 0.8; stroke-linejoin: miter"/>
    </g>
    <g id="text_18">
     <text style="font-size: 10px; font-family: 'DejaVu Sans'; text-anchor: middle; fill: #111111" x="196.92" y="111.261256" transform="rotate(-0 196.92 111.261256)">52</text>
    </g>
    <g id="patch_20">
     <path d="M 224.82 117.801881 
L 280.62 117.801881 
L 280.62 99.201881 
L 224.82 99.201881 
z
" style="fill: #ffffff; stroke: #111111; stroke-width: 0.8; stroke-linejoin: miter"/>
    </g>
    <g id="text_19">
     <text style="font-size: 10px; font-family: 'DejaVu Sans'; text-anchor: middle; fill: #111111" x="252.72" y="111.261256" transform="rotate(-0 252.72 111.261256)">40</text>
    </g>
    <g id="patch_21">
     <path d="M 280.62 117.801881 
L 336.42 117.801881 
L 336.42 99.201881 
L 280.62 99.201881 
z
" style="fill: #ffffff; stroke: #111111; stroke-width: 0.8; stroke-linejoin: miter"/>
    </g>
    <g id="text_20">
     <text style="font-size: 10px; font-family: 'DejaVu Sans'; text-anchor: middle; fill: #111111" x="308.52" y="111.261256" transform="rotate(-0 308.52 111.261256)">200</text>
    </g>
   </g>
   <g id="text_21">
    <text style="font-weight: 700; font-size: 11px; font-family: 'DejaVu Sans'; text-anchor: middle; fill: #111111" x="171.81" y="15.558281" transform="rotate(-0 171.81 15.558281)">Beverage Preference by Age Group</text>
   </g>
  </g>
 </g>
</svg>
